<svg width="112" height="29" viewBox="0 0 112 29" fill="none" xmlns="http://www.w3.org/2000/svg">
<path d="M31.7168 1.992V5.68H36.2208V7.192H31.7168V12H29.8368V0.48H37.0208V1.992H31.7168ZM47.1396 10.432V12H40.4836V0.48H42.3556V10.432H47.1396ZM60.7045 6.24C60.7045 7.09333 60.5658 7.88 60.2885 8.6C60.0112 9.32 59.6192 9.94133 59.1125 10.464C58.6112 10.9813 58.0058 11.3867 57.2965 11.68C56.5925 11.9733 55.8085 12.12 54.9445 12.12C54.0858 12.12 53.3018 11.9733 52.5925 11.68C51.8885 11.3867 51.2832 10.9813 50.7765 10.464C50.2698 9.94133 49.8778 9.32 49.6005 8.6C49.3232 7.88 49.1845 7.09333 49.1845 6.24C49.1845 5.38667 49.3232 4.6 49.6005 3.88C49.8778 3.16 50.2698 2.53867 50.7765 2.016C51.2832 1.49333 51.8885 1.08533 52.5925 0.792C53.3018 0.498666 54.0858 0.351999 54.9445 0.351999C55.8085 0.351999 56.5925 0.498666 57.2965 0.792C58.0058 1.08533 58.6112 1.49333 59.1125 2.016C59.6192 2.53867 60.0112 3.16 60.2885 3.88C60.5658 4.6 60.7045 5.38667 60.7045 6.24ZM58.7925 6.24C58.7925 5.57867 58.7018 4.984 58.5205 4.456C58.3445 3.928 58.0885 3.48 57.7525 3.112C57.4218 2.744 57.0192 2.46133 56.5445 2.264C56.0698 2.06667 55.5365 1.968 54.9445 1.968C54.3578 1.968 53.8272 2.06667 53.3525 2.264C52.8778 2.46133 52.4725 2.744 52.1365 3.112C51.8005 3.48 51.5418 3.928 51.3605 4.456C51.1792 4.984 51.0885 5.57867 51.0885 6.24C51.0885 6.90667 51.1792 7.504 51.3605 8.032C51.5418 8.56 51.8005 9.008 52.1365 9.376C52.4725 9.73867 52.8778 10.0187 53.3525 10.216C53.8272 10.408 54.3578 10.504 54.9445 10.504C55.5365 10.504 56.0698 10.408 56.5445 10.216C57.0192 10.0187 57.4218 9.73867 57.7525 9.376C58.0885 9.008 58.3445 8.56 58.5205 8.032C58.7018 7.504 58.7925 6.90667 58.7925 6.24ZM79.2964 0.48L75.7124 12H74.0244L71.3204 3.728C71.2884 3.63733 71.2564 3.53867 71.2244 3.432C71.1977 3.32533 71.171 3.21067 71.1444 3.088C71.1177 3.21067 71.0884 3.32533 71.0564 3.432C71.0297 3.53867 71.0004 3.63733 70.9684 3.728L68.2404 12H66.5524L62.9684 0.48H64.5364C64.6964 0.48 64.8297 0.52 64.9364 0.599999C65.0484 0.674666 65.123 0.778666 65.1604 0.912L67.3204 8.296C67.363 8.456 67.403 8.62933 67.4404 8.816C67.4777 9.00267 67.515 9.19733 67.5524 9.4C67.5897 9.19733 67.6297 9.00267 67.6724 8.816C67.7204 8.624 67.771 8.45067 67.8244 8.296L70.2964 0.912C70.3337 0.805333 70.4084 0.706666 70.5204 0.615999C70.6324 0.525333 70.7657 0.48 70.9204 0.48H71.4644C71.6297 0.48 71.763 0.522666 71.8644 0.608C71.9657 0.688 72.043 0.789333 72.0964 0.912L74.5604 8.296C74.6137 8.45067 74.6617 8.61867 74.7044 8.8C74.7524 8.976 74.795 9.16267 74.8324 9.36C74.8697 9.16267 74.9044 8.976 74.9364 8.8C74.9737 8.61867 75.0137 8.45067 75.0564 8.296L77.2084 0.912C77.2404 0.794666 77.3124 0.693333 77.4244 0.608C77.5417 0.522666 77.6777 0.48 77.8324 0.48H79.2964ZM89.6475 10.488L89.6395 12H82.4555V0.48H89.6395V1.992H84.3355V5.464H88.5755V6.928H84.3355V10.488H89.6475ZM96.6183 6C97.0449 6 97.4183 5.94933 97.7383 5.848C98.0583 5.74133 98.3249 5.59467 98.5383 5.408C98.7516 5.22133 98.9116 5 99.0183 4.744C99.1249 4.48267 99.1783 4.19467 99.1783 3.88C99.1783 3.25067 98.9703 2.77067 98.5543 2.44C98.1383 2.10933 97.5089 1.944 96.6663 1.944H95.1463V6H96.6183ZM102.042 12H100.37C100.04 12 99.7996 11.872 99.6503 11.616L96.9623 7.736C96.8716 7.60267 96.7729 7.50667 96.6663 7.448C96.5596 7.38933 96.3996 7.36 96.1863 7.36H95.1463V12H93.2743V0.48H96.6663C97.4236 0.48 98.0743 0.557333 98.6183 0.712C99.1676 0.866666 99.6183 1.088 99.9703 1.376C100.322 1.65867 100.581 2 100.746 2.4C100.917 2.8 101.002 3.24533 101.002 3.736C101.002 4.136 100.941 4.50933 100.818 4.856C100.701 5.20267 100.528 5.51733 100.298 5.8C100.074 6.08267 99.7969 6.328 99.4663 6.536C99.1356 6.744 98.7596 6.90667 98.3383 7.024C98.5676 7.16267 98.7649 7.35733 98.9303 7.608L102.042 12ZM111.054 2.448C110.996 2.544 110.934 2.616 110.87 2.664C110.806 2.70667 110.726 2.728 110.63 2.728C110.529 2.728 110.414 2.68533 110.286 2.6C110.164 2.51467 110.009 2.42133 109.822 2.32C109.641 2.21333 109.425 2.11733 109.174 2.032C108.924 1.94133 108.625 1.896 108.278 1.896C107.958 1.896 107.676 1.936 107.43 2.016C107.19 2.096 106.988 2.208 106.822 2.352C106.657 2.496 106.532 2.66667 106.446 2.864C106.366 3.056 106.326 3.26667 106.326 3.496C106.326 3.78933 106.404 4.03467 106.558 4.232C106.713 4.424 106.916 4.58933 107.166 4.728C107.422 4.86667 107.713 4.98933 108.038 5.096C108.364 5.19733 108.694 5.30667 109.03 5.424C109.372 5.54133 109.705 5.67467 110.03 5.824C110.356 5.97333 110.644 6.16267 110.894 6.392C111.15 6.62133 111.356 6.90133 111.51 7.232C111.665 7.56267 111.742 7.96533 111.742 8.44C111.742 8.952 111.654 9.432 111.478 9.88C111.302 10.328 111.046 10.72 110.71 11.056C110.38 11.3867 109.969 11.648 109.478 11.84C108.993 12.032 108.438 12.128 107.814 12.128C107.446 12.128 107.086 12.0907 106.734 12.016C106.388 11.9467 106.054 11.848 105.734 11.72C105.42 11.5867 105.124 11.4267 104.846 11.24C104.569 11.0533 104.321 10.8453 104.102 10.616L104.646 9.72C104.694 9.64533 104.756 9.58667 104.83 9.544C104.905 9.50133 104.988 9.48 105.078 9.48C105.201 9.48 105.337 9.53867 105.486 9.656C105.636 9.768 105.814 9.89333 106.022 10.032C106.236 10.1653 106.492 10.2907 106.79 10.408C107.089 10.52 107.446 10.576 107.862 10.576C108.54 10.576 109.062 10.4107 109.43 10.08C109.804 9.74933 109.99 9.29333 109.99 8.712C109.99 8.38667 109.913 8.12267 109.758 7.92C109.604 7.712 109.398 7.53867 109.142 7.4C108.892 7.26133 108.604 7.144 108.278 7.048C107.953 6.952 107.622 6.85067 107.286 6.744C106.95 6.632 106.62 6.504 106.294 6.36C105.969 6.21067 105.678 6.01867 105.422 5.784C105.172 5.544 104.969 5.25067 104.814 4.904C104.66 4.552 104.582 4.11467 104.582 3.592C104.582 3.176 104.662 2.77333 104.822 2.384C104.988 1.99467 105.225 1.65067 105.534 1.352C105.849 1.048 106.236 0.805333 106.694 0.624C107.153 0.442666 107.676 0.351999 108.262 0.351999C108.924 0.351999 109.529 0.455999 110.078 0.664C110.633 0.872 111.11 1.168 111.51 1.552L111.054 2.448Z" fill="#1F1F1F"/>
<path d="M5.496 20.746C5.46 20.806 5.42 20.852 5.376 20.884C5.336 20.912 5.286 20.926 5.226 20.926C5.158 20.926 5.078 20.892 4.986 20.824C4.894 20.756 4.778 20.682 4.638 20.602C4.502 20.518 4.336 20.442 4.14 20.374C3.948 20.306 3.714 20.272 3.438 20.272C3.178 20.272 2.948 20.308 2.748 20.38C2.552 20.448 2.386 20.542 2.25 20.662C2.118 20.782 2.018 20.924 1.95 21.088C1.882 21.248 1.848 21.422 1.848 21.61C1.848 21.85 1.906 22.05 2.022 22.21C2.142 22.366 2.298 22.5 2.49 22.612C2.686 22.724 2.906 22.822 3.15 22.906C3.398 22.986 3.65 23.07 3.906 23.158C4.166 23.246 4.418 23.346 4.662 23.458C4.91 23.566 5.13 23.704 5.322 23.872C5.518 24.04 5.674 24.246 5.79 24.49C5.91 24.734 5.97 25.034 5.97 25.39C5.97 25.766 5.906 26.12 5.778 26.452C5.65 26.78 5.462 27.066 5.214 27.31C4.97 27.554 4.668 27.746 4.308 27.886C3.952 28.026 3.546 28.096 3.09 28.096C2.53 28.096 2.022 27.996 1.566 27.796C1.11 27.592 0.72 27.318 0.396 26.974L0.732 26.422C0.764 26.378 0.802 26.342 0.846 26.314C0.894 26.282 0.946 26.266 1.002 26.266C1.054 26.266 1.112 26.288 1.176 26.332C1.244 26.372 1.32 26.424 1.404 26.488C1.488 26.552 1.584 26.622 1.692 26.698C1.8 26.774 1.922 26.844 2.058 26.908C2.198 26.972 2.356 27.026 2.532 27.07C2.708 27.11 2.906 27.13 3.126 27.13C3.402 27.13 3.648 27.092 3.864 27.016C4.08 26.94 4.262 26.834 4.41 26.698C4.562 26.558 4.678 26.392 4.758 26.2C4.838 26.008 4.878 25.794 4.878 25.558C4.878 25.298 4.818 25.086 4.698 24.922C4.582 24.754 4.428 24.614 4.236 24.502C4.044 24.39 3.824 24.296 3.576 24.22C3.328 24.14 3.076 24.06 2.82 23.98C2.564 23.896 2.312 23.8 2.064 23.692C1.816 23.584 1.596 23.444 1.404 23.272C1.212 23.1 1.056 22.886 0.936 22.63C0.82 22.37 0.762 22.05 0.762 21.67C0.762 21.366 0.82 21.072 0.936 20.788C1.056 20.504 1.228 20.252 1.452 20.032C1.68 19.812 1.958 19.636 2.286 19.504C2.618 19.372 2.998 19.306 3.426 19.306C3.906 19.306 4.342 19.382 4.734 19.534C5.13 19.686 5.478 19.906 5.778 20.194L5.496 20.746ZM13.2273 24.808L11.8773 21.31C11.8373 21.206 11.7953 21.086 11.7513 20.95C11.7073 20.81 11.6653 20.662 11.6253 20.506C11.5413 20.83 11.4553 21.1 11.3673 21.316L10.0173 24.808H13.2273ZM15.6513 28H14.7513C14.6473 28 14.5633 27.974 14.4993 27.922C14.4353 27.87 14.3873 27.804 14.3553 27.724L13.5513 25.648H9.69328L8.88928 27.724C8.86528 27.796 8.81928 27.86 8.75128 27.916C8.68328 27.972 8.59928 28 8.49928 28H7.59928L11.0373 19.402H12.2133L15.6513 28ZM26.9284 19.402V28H25.9084V21.682C25.9084 21.598 25.9104 21.508 25.9144 21.412C25.9224 21.316 25.9304 21.218 25.9384 21.118L22.9864 26.494C22.8944 26.674 22.7544 26.764 22.5664 26.764H22.3984C22.2104 26.764 22.0704 26.674 21.9784 26.494L18.9664 21.094C18.9904 21.306 19.0024 21.502 19.0024 21.682V28H17.9824V19.402H18.8404C18.9444 19.402 19.0244 19.412 19.0804 19.432C19.1364 19.452 19.1904 19.508 19.2424 19.6L22.2124 24.892C22.2604 24.988 22.3064 25.088 22.3504 25.192C22.3984 25.296 22.4424 25.402 22.4824 25.51C22.5224 25.402 22.5644 25.296 22.6084 25.192C22.6524 25.084 22.7004 24.982 22.7524 24.886L25.6684 19.6C25.7164 19.508 25.7684 19.452 25.8244 19.432C25.8844 19.412 25.9664 19.402 26.0704 19.402H26.9284ZM34.8929 24.808L33.5429 21.31C33.5029 21.206 33.4609 21.086 33.4169 20.95C33.3729 20.81 33.3309 20.662 33.2909 20.506C33.2069 20.83 33.1209 21.1 33.0329 21.316L31.6829 24.808H34.8929ZM37.3169 28H36.4169C36.3129 28 36.2289 27.974 36.1649 27.922C36.1009 27.87 36.0529 27.804 36.0209 27.724L35.2169 25.648H31.3589L30.5549 27.724C30.5309 27.796 30.4849 27.86 30.4169 27.916C30.3489 27.972 30.2649 28 30.1649 28H29.2649L32.7029 19.402H33.8789L37.3169 28ZM42.03 23.566C42.366 23.566 42.662 23.526 42.918 23.446C43.178 23.362 43.394 23.246 43.566 23.098C43.742 22.946 43.874 22.766 43.962 22.558C44.05 22.35 44.094 22.12 44.094 21.868C44.094 21.356 43.926 20.97 43.59 20.71C43.254 20.45 42.75 20.32 42.078 20.32H40.806V23.566H42.03ZM46.002 28H44.97C44.758 28 44.602 27.918 44.502 27.754L42.27 24.682C42.202 24.586 42.128 24.518 42.048 24.478C41.972 24.434 41.852 24.412 41.688 24.412H40.806V28H39.648V19.402H42.078C42.622 19.402 43.092 19.458 43.488 19.57C43.884 19.678 44.21 19.836 44.466 20.044C44.726 20.252 44.918 20.504 45.042 20.8C45.166 21.092 45.228 21.42 45.228 21.784C45.228 22.088 45.18 22.372 45.084 22.636C44.988 22.9 44.848 23.138 44.664 23.35C44.484 23.558 44.262 23.736 43.998 23.884C43.738 24.032 43.442 24.144 43.11 24.22C43.258 24.304 43.386 24.426 43.494 24.586L46.002 28ZM52.9374 24.808L51.5874 21.31C51.5474 21.206 51.5054 21.086 51.4614 20.95C51.4174 20.81 51.3754 20.662 51.3354 20.506C51.2514 20.83 51.1654 21.1 51.0774 21.316L49.7274 24.808H52.9374ZM55.3614 28H54.4614C54.3574 28 54.2734 27.974 54.2094 27.922C54.1454 27.87 54.0974 27.804 54.0654 27.724L53.2614 25.648H49.4034L48.5994 27.724C48.5754 27.796 48.5294 27.86 48.4614 27.916C48.3934 27.972 48.3094 28 48.2094 28H47.3094L50.7474 19.402H51.9234L55.3614 28Z" fill="#A4A4A4"/>
</svg>
