<svg width="25" height="25" viewBox="0 0 25 25" fill="none" xmlns="http://www.w3.org/2000/svg">
<path fill-rule="evenodd" clip-rule="evenodd" d="M16.5507 15.3475C19.6196 11.6708 19.4281 6.19303 15.9761 2.74107C12.3214 -0.91369 6.39583 -0.91369 2.74107 2.74107C-0.91369 6.39583 -0.91369 12.3214 2.74107 15.9761C6.19304 19.4281 11.6708 19.6196 15.3476 16.5507L23.7968 25L25 23.7968L16.5507 15.3475ZM14.7845 14.7613C14.7807 14.7652 14.7768 14.7691 14.7729 14.7729C14.7691 14.7768 14.7652 14.7807 14.7613 14.7845C11.7701 17.7632 6.93064 17.7593 3.94426 14.7729C0.953998 11.7827 0.953998 6.93451 3.94426 3.94426C6.93451 0.953998 11.7827 0.953998 14.7729 3.94426C17.7593 6.93064 17.7632 11.7701 14.7845 14.7613Z" fill="white"/>
</svg>
